<svg xmlns="http://www.w3.org/2000/svg" version="1.1" xmlns:xlink="http://www.w3.org/1999/xlink" xmlns:svgjs="http://svgjs.dev/svgjs" width="100%" height="100%" viewBox="0 0 1000 600"><rect width="1000" height="600" x="0" y="0" fill="#153866"/><g><circle r="166.66666666666666" cx="374.75551859537757" cy="396.9777512130012" fill="#ffffff" transform="matrix(0.6007049263080606,0,0,0.6007049263080606,0,61.5335138036327)"/><path d="M260.0636341602333 471.2718456347854L233.13500853269008 471.9363593106707Q232.47049485680475 471.2718456347854 232.47049485680475 468.61379093124407L232.47049485680475 468.61379093124407Q232.47049485680475 465.48108360207044 233.13500853269008 465.48108360207044L233.13500853269008 465.48108360207044Q235.12854956034604 465.48108360207044 238.48276144814812 464.72163940105867Q241.80532982757472 463.9305516916714 244.81146312324643 462.8230288985292Q247.8175964189181 461.71550610538696 248.48211009480343 460.35483524524085L248.48211009480343 460.35483524524085Q250.064285513578 457.918285100328 250.064285513578 439.4701197174165L250.064285513578 439.4701197174165L250.064285513578 355.36167445536023Q250.064285513578 348.90639874676 249.7162069214476 344.00165494855884Q249.3681283293172 339.0969111503576 248.48211009480343 336.2173518881879L248.48211009480343 336.2173518881879Q248.03910097754655 334.88832453641726 245.03296768187485 333.78080174327505Q242.02683438620318 332.6732789501329 238.5776919732746 331.977121765872Q235.12854956034604 331.3126080899868 233.13500853269008 331.3126080899868L233.13500853269008 331.3126080899868Q232.24899029817632 331.3126080899868 232.24899029817632 328.65455338644546L232.24899029817632 328.65455338644546Q232.24899029817632 325.77499412427574 233.13500853269008 324.85733238138647L233.13500853269008 324.85733238138647Q238.925770565405 325.0788369400149 245.47597679913176 325.2054109735169Q252.05782654123396 325.3003414986434 259.62062504297637 325.3003414986434L259.62062504297637 325.3003414986434L281.2014977550616 325.0788369400149Q287.6567734636618 325.0788369400149 291.8653600776022 324.98390641488845Q296.1055901999181 324.85733238138647 298.3206357862025 324.85733238138647L298.3206357862025 324.85733238138647Q322.59120671020435 324.85733238138647 339.71034474134524 334.7617505029153Q356.86112628086164 344.66616862444414 365.97445669300316 360.8992884210712Q375.0877871051447 377.16405172607386 375.0877871051447 396.4982353434991L375.0877871051447 396.4982353434991Q375.0877871051447 417.85760349695585 365.84788265950124 435.22988959510064Q356.6396217222332 452.57053218486993 339.39390965759037 462.6015243399007Q322.14819759294755 472.600872986556 298.09913122757405 471.9363593106707L298.09913122757405 471.9363593106707L282.30902054820376 471.49335019341385Q275.6322402809751 471.2718456347854 270.0629828068886 471.1452716012834Q264.5253688411776 471.05034107615694 260.0636341602333 471.2718456347854L260.0636341602333 471.2718456347854ZM301.6748476740046 461.71550610538696L301.6748476740046 461.71550610538696Q352.8424007171742 461.71550610538696 352.8424007171742 395.61221710898536L352.8424007171742 395.61221710898536Q352.8424007171742 378.7145836364729 346.8301341258308 364.91801398475866Q340.8178675344875 351.1214443330444 329.1414129439311 342.89413215541657Q317.46495835337475 334.66681997778886 300.1243157636055 334.66681997778886L300.1243157636055 334.66681997778886L298.98514946208775 334.66681997778886Q274.96772660508975 334.66681997778886 272.30967190154854 338.2108929158439L272.30967190154854 338.2108929158439Q269.39846913100325 342.0081139209029 269.39846913100325 352.2289671261866L269.39846913100325 352.2289671261866L269.39846913100325 440.3561379519303Q269.39846913100325 449.4694683640718 272.75268101880533 457.2537714244427L272.75268101880533 457.2537714244427Q273.19569013606224 458.3612942175849 276.5182585154888 459.15238192697217Q279.872470403291 459.91182612798394 284.6506401679901 460.48140927874283Q289.4288099326893 461.05099242950166 294.1120491722621 461.3674275132566Q298.7636449034593 461.71550610538696 301.6748476740046 461.71550610538696ZM449.19688372054566 470.8288365175285L422.4897626516308 471.9363593106707Q421.6037444171171 471.05034107615694 421.6037444171171 468.61379093124407L421.6037444171171 468.61379093124407Q421.6037444171171 465.48108360207044 422.4897626516308 465.48108360207044L422.4897626516308 465.48108360207044Q424.4833036792868 465.48108360207044 427.837515567089 464.9431439596871Q431.16008394651556 464.3735608089283 434.0396432086852 463.266038015786Q436.9508459792305 462.15851522264387 437.3938550964874 461.05099242950166L437.3938550964874 461.05099242950166Q438.2798733310011 457.918285100328 438.6279519231315 453.01354130212684Q438.94438700688636 448.14044101230115 438.94438700688636 441.242156186444L438.94438700688636 441.242156186444L438.94438700688636 360.67778386244277Q438.94438700688636 341.3436002450175 436.9508459792305 337.767883798587L436.9508459792305 337.767883798587Q435.40031406883145 334.4453154191604 412.901779613857 334.4453154191604L412.901779613857 334.4453154191604Q404.4529628776007 334.4453154191604 399.80136714640355 335.86927329605754Q395.11812790683075 337.32487468133013 392.681577761918 341.56510480364597Q390.2133841086296 345.77369141758635 387.9983385223452 354.254151662218L387.9983385223452 354.254151662218Q387.5553294050883 355.36167445536023 385.7832929360608 355.36167445536023L385.7832929360608 355.36167445536023Q381.9860719310018 355.36167445536023 380.43554002060273 353.77949903658566L380.43554002060273 353.77949903658566L384.6441266345431 321.97777311921675Q389.54887043274425 323.08529591235896 393.34609143780324 323.7498095882443Q397.1116689344867 324.4143232641296 400.022871705032 324.4143232641296L400.022871705032 324.4143232641296Q416.03448694303063 324.4143232641296 428.2805246843458 324.85733238138647Q440.49491891728553 325.3003414986434 448.72223109491324 325.3003414986434L448.72223109491324 325.3003414986434Q465.87301263442964 325.3003414986434 478.2139809008713 324.85733238138647Q490.554949167313 324.4143232641296 497.67473855179855 324.4143232641296L497.67473855179855 324.4143232641296Q500.58594132234373 324.4143232641296 504.3515188190272 323.7498095882443Q508.1487398240862 323.08529591235896 513.0534836222873 321.97777311921675L513.0534836222873 321.97777311921675L517.2620702362277 353.77949903658566Q515.7115383258287 355.36167445536023 511.91431732076967 355.36167445536023L511.91431732076967 355.36167445536023Q510.14228085174216 355.36167445536023 509.69927173448525 354.254151662218L509.69927173448525 354.254151662218Q507.7057307068293 345.77369141758635 505.1426065284146 341.56510480364597Q502.5794823499997 337.32487468133013 497.896243110427 335.86927329605754Q493.24464737922983 334.4453154191604 484.79583064297356 334.4453154191604L484.79583064297356 334.4453154191604Q461.4112779534854 334.4453154191604 460.30375516034314 337.767883798587L460.30375516034314 337.767883798587Q458.3102141326872 344.66616862444414 458.3102141326872 360.01327018655746L458.3102141326872 360.01327018655746L458.3102141326872 440.3561379519303Q458.3102141326872 453.2350458607553 460.30375516034314 461.05099242950166L460.30375516034314 461.05099242950166Q460.74676427760005 461.9370106640154 463.6579670481452 463.04453345715757Q466.537526310315 464.15205625029984 469.8600946897416 464.81656992618514Q473.21430657754365 465.48108360207044 474.54333392931426 465.48108360207044L474.54333392931426 465.48108360207044Q475.42935216382807 465.48108360207044 475.42935216382807 468.8352954898725L475.42935216382807 468.8352954898725Q475.42935216382807 470.1643228416432 474.98634304657116 471.9363593106707L474.98634304657116 471.9363593106707Q463.8794716067737 471.49335019341385 457.42419589817337 471.1452716012834Q450.96892018957317 470.8288365175285 449.19688372054566 470.8288365175285L449.19688372054566 470.8288365175285Z " fill="#000000" transform="matrix(0.6007049263080606,0,0,0.6007049263080606,0,61.5335138036327)"/><path d="M652.2529137439973 469.56901163576896L625.6314334585037 470.2259459318857Q624.9744991623869 469.56901163576896 624.9744991623869 466.9412744513018L624.9744991623869 466.9412744513018Q624.9744991623869 463.84429848389425 625.6314334585037 463.84429848389425L625.6314334585037 463.84429848389425Q627.6022363468539 463.84429848389425 630.9181904129672 463.09351643118936Q634.2028618935509 462.3114517929551 637.174707518841 461.21656129942716Q640.1465531441312 460.1216708058992 640.803487440248 458.7765196281363L640.803487440248 458.7765196281363Q642.3676167167165 456.36776054237487 642.3676167167165 438.1300131787523L642.3676167167165 438.1300131787523L642.3676167167165 354.9809008416874Q642.3676167167165 348.59925339369596 642.0235082758934 343.7504526366436Q641.6793998350703 338.9016518795913 640.803487440248 336.05493659641866L640.803487440248 336.05493659641866Q640.3655312428368 334.74106800418514 637.3936856175467 333.6461775106572Q634.4218399922565 332.55128701712925 631.0120381695552 331.8630701354831Q627.6022363468539 331.20613583936637 625.6314334585037 331.20613583936637L625.6314334585037 331.20613583936637Q624.7555210636813 331.20613583936637 624.7555210636813 328.57839865489933L624.7555210636813 328.57839865489933Q624.7555210636813 325.73168337172666 625.6314334585037 324.8244883913749L625.6314334585037 324.8244883913749Q631.3561466103783 325.0434664900805 637.8316418149578 325.16859683219803Q644.3384196050669 325.2624445887861 651.8149575465861 325.2624445887861L651.8149575465861 325.2624445887861L673.1496808776163 325.0434664900805Q679.5313283256078 325.0434664900805 683.6919122010139 324.9496187334924Q687.8837786619496 324.8244883913749 690.0735596490055 324.8244883913749L690.0735596490055 324.8244883913749Q714.067302750032 324.8244883913749 730.9911815214211 334.61593766206767Q747.9463428783396 344.4073869327604 756.955727510798 360.4553533093271Q765.9651121432565 376.5346022714232 765.9651121432565 395.64826202986814L765.9651121432565 395.64826202986814Q765.9651121432565 416.7640072621927 756.8305971686806 433.9381467178167Q747.727364779634 451.0810035879114 730.6783556661273 460.99758320072164Q713.6293465526209 470.8828802280024 689.8545815502998 470.2259459318857L689.8545815502998 470.2259459318857L674.2445713711443 469.7879897344745Q667.6439458244473 469.56901163576896 662.1382107712782 469.4438812936515Q656.6637583036385 469.3500335370633 652.2529137439973 469.56901163576896L652.2529137439973 469.56901163576896ZM693.3895137151186 460.1216708058992L693.3895137151186 460.1216708058992Q743.9734545161095 460.1216708058992 743.9734545161095 394.77234963504577L743.9734545161095 394.77234963504577Q743.9734545161095 378.0674489623623 738.0297632655293 364.4282416715571Q732.0860720149491 350.78903438075184 720.5427979546116 342.6555621431157Q708.9995238942741 334.52208990547956 691.8566670241795 334.52208990547956L691.8566670241795 334.52208990547956L690.7304939451222 334.52208990547956Q666.9870115283305 334.52208990547956 664.3592743438634 338.02573948476896L664.3592743438634 338.02573948476896Q661.4812764751615 341.77964974829337 661.4812764751615 351.8839248742798L661.4812764751615 351.8839248742798L661.4812764751615 439.00592557357464Q661.4812764751615 448.0153102060331 664.7972305412746 455.71082624625814L664.7972305412746 455.71082624625814Q665.2351867386858 456.8057167397861 668.5198582192696 457.58778137802034Q671.8358122853828 458.3385634307252 676.5594827003177 458.90164997025386Q681.2831531152525 459.46473650978254 685.9129757735992 459.7775623650762Q690.5115158464166 460.1216708058992 693.3895137151186 460.1216708058992ZM807.9776245092002 469.13105543835775L784.0151639937029 470.2259459318857Q783.1392515988805 469.3500335370633 783.1392515988805 466.5033182538907L783.1392515988805 466.5033182538907Q783.1392515988805 463.84429848389425 784.0151639937029 463.84429848389425L784.0151639937029 463.84429848389425Q785.7669887833476 463.84429848389425 788.8326821652258 463.1873641877775Q791.9296581326334 462.53042989166073 794.5573953171005 461.4355393981328Q797.216415087097 460.34064890460485 797.4353931858026 459.46473650978254L797.4353931858026 459.46473650978254Q798.3113055806249 456.36776054237487 798.6241314359186 452.42615476567426Q798.9682398767417 448.45326640344433 798.9682398767417 444.0424218438032L798.9682398767417 444.0424218438032L798.9682398767417 402.46786567527073Q798.9682398767417 394.115415338929 795.8712639093341 390.6117657596396L795.8712639093341 390.6117657596396Q793.6814829222782 387.73376789093754 790.6157895403999 386.9829858382327Q787.5188135729923 386.20092119999845 785.3290325859364 386.10707344341034Q783.1392515988805 385.98194310129287 783.1392515988805 385.54398690388166L783.1392515988805 385.54398690388166Q783.1392515988805 380.25722994941816 784.4531201911141 380.0382518507126L784.4531201911141 380.0382518507126Q796.0902420080396 378.2864270610679 802.2529113573255 377.06640622542244Q808.4155807066113 375.8776679753064 813.2643814636637 374.78277748177845L813.2643814636637 374.78277748177845L815.8921186481307 374.09456060013235Q816.768031042953 373.8755825014268 816.9870091416586 375.8776679753064Q817.2059872403643 377.8484708636567 816.9870091416586 378.72438325847907L816.9870091416586 378.72438325847907Q816.5490529442475 383.1352278181202 816.2362270889538 387.0768335948208Q815.8921186481307 391.04972195705074 815.8921186481307 394.5533715363402L815.8921186481307 394.5533715363402L815.8921186481307 439.881837968397Q815.8921186481307 446.26348541638845 816.330074845542 451.0810035879114Q816.768031042953 455.92980434496366 817.6439434377754 459.46473650978254L817.6439434377754 459.46473650978254Q818.113182220716 460.34064890460485 820.740919405183 461.4355393981328Q823.3686565896501 462.53042989166073 826.4656325570577 463.1873641877775Q829.5313259389359 463.84429848389425 830.8451945311695 463.84429848389425L830.8451945311695 463.84429848389425Q831.5021288272862 463.84429848389425 831.7211069259918 466.5033182538907Q831.9713676102267 469.13105543835775 831.5021288272862 470.2259459318857L831.5021288272862 470.2259459318857L807.9776245092002 469.13105543835775ZM805.7878435221443 350.13210008463506L805.7878435221443 350.13210008463506Q801.3769989625032 350.13210008463506 798.0923274819193 346.84742860405123Q794.7763734158061 343.5314745379381 794.7763734158061 339.1206299782969L794.7763734158061 339.1206299782969Q794.7763734158061 334.52208990547956 798.0923274819193 331.33126618148384Q801.3769989625032 328.1404424574881 805.7878435221443 328.1404424574881L805.7878435221443 328.1404424574881Q810.3863835949617 328.1404424574881 813.5772073189573 331.33126618148384Q816.768031042953 334.52208990547956 816.768031042953 339.1206299782969L816.768031042953 339.1206299782969Q816.768031042953 343.5314745379381 813.5772073189573 346.84742860405123Q810.3863835949617 350.13210008463506 805.7878435221443 350.13210008463506ZM876.6116171606375 471.9777707215304L876.6116171606375 471.9777707215304Q869.7920135152349 471.9777707215304 864.2862784620658 470.44492403059127Q858.7805434088967 468.91207733965217 850.8660492699662 467.81718684612423L850.8660492699662 467.81718684612423Q849.9901368751438 465.37714517483334 849.1142244803215 461.21656129942716Q848.238312085499 457.02469483849165 847.6752255459704 452.42615476567426Q847.1434215919711 447.79633210732754 847.1434215919711 444.9183342386255L847.1434215919711 444.9183342386255Q848.8952463816158 443.604465646392 849.7711587764381 443.604465646392L849.7711587764381 443.604465646392Q853.0871128425514 443.604465646392 853.306090941257 444.9183342386255L853.306090941257 444.9183342386255Q854.1820033360793 449.3291787982667 857.6856529153688 453.7400233579078Q861.2205850801876 458.1195853320196 866.2570813504161 461.0914309573097Q871.324860206174 464.0632765825998 876.6116171606375 464.0632765825998L876.6116171606375 464.0632765825998Q883.6501989047457 464.0632765825998 888.1548912209748 460.2155185624874Q892.6595835372042 456.36776054237487 892.6595835372042 449.11020069956106L892.6595835372042 449.11020069956106Q892.6595835372042 441.4146846593361 886.7158922866239 436.3469058035782L886.7158922866239 436.3469058035782Q882.1173522138065 432.6242781255832 878.9265284898108 430.9663010925266Q875.7357047658152 429.30832405947 872.763859140525 427.9006077106484Q869.7920135152349 426.46160877629734 865.3811689555937 423.80258900630093L865.3811689555937 423.80258900630093Q848.238312085499 413.9172919790201 848.238312085499 400.27808468821485L848.238312085499 400.27808468821485Q848.238312085499 392.3635905492843 852.6178740596108 386.3260515421159Q857.028718619252 380.25722994941816 864.4114088041832 376.84742812671686Q871.7628164035851 373.43762630401557 880.1152667399268 373.43762630401557L880.1152667399268 373.43762630401557Q882.5553084112178 373.43762630401557 885.621001793096 373.7817347448386Q888.7179777605036 374.09456060013235 892.4406054384986 374.5325167975435L892.4406054384986 374.5325167975435Q896.194515702023 375.22073367918966 898.6032747877845 375.6586898766008Q901.012033873546 376.09664607401197 902.5761631500144 376.3156241727176L902.5761631500144 376.3156241727176Q904.9849222357759 386.419899298704 905.2039003344814 398.74523799727575L905.2039003344814 398.74523799727575Q905.2039003344814 399.8401284908037 902.3571850513088 399.8401284908037L902.3571850513088 399.8401284908037Q899.2602090839011 399.8401284908037 899.0412309851956 398.30728179986454L899.0412309851956 398.30728179986454Q897.9463404916676 392.1446124505787 892.7847138793215 386.6388773974096Q887.5918046814462 381.1331423442405 880.9911791347492 381.1331423442405L880.9911791347492 381.1331423442405Q865.1621908568882 381.1331423442405 865.1621908568882 394.115415338929L865.1621908568882 394.115415338929Q865.1621908568882 397.4313694050422 865.9442554951224 399.96525883292117Q866.6950375478273 402.46786567527073 869.5730354165294 404.688929247856L869.5730354165294 404.688929247856Q876.3926390619318 409.9756862023195 885.7461321352134 415.2311605712536Q895.0683426229657 420.5179175257171 901.2310119722515 425.1477401840638L901.2310119722515 425.1477401840638Q910.4906572889449 432.18632192817205 910.4906572889449 441.6336627580417L910.4906572889449 441.6336627580417Q910.4906572889449 450.205091193089 905.8608346305982 457.1498251806091Q901.2310119722515 464.0632765825998 893.5354959320265 468.0361649448298Q885.8399798918015 471.9777707215304 876.6116171606375 471.9777707215304ZM991.199727954719 469.13105543835775L964.797225767931 470.2259459318857Q963.9213133731085 469.3500335370633 963.9213133731085 466.9412744513018L963.9213133731085 466.9412744513018Q963.9213133731085 463.84429848389425 964.797225767931 463.84429848389425L964.797225767931 463.84429848389425Q966.7993112418105 463.84429848389425 970.0839827223945 463.312494529895Q973.3999367885076 462.7494079903663 976.2466520716803 461.65451749683837Q979.093367354853 460.5596270033104 979.531323552264 459.46473650978254L979.531323552264 459.46473650978254Q980.4385185326157 456.36776054237487 980.7513443879095 451.5189597853226Q981.0954528287325 446.7014416137996 981.0954528287325 439.881837968397L981.0954528287325 439.881837968397L981.0954528287325 360.23637521062153Q981.0954528287325 341.1227154521766 979.093367354853 337.5877832873578L979.093367354853 337.5877832873578Q977.5605206639137 334.303111806774 955.3498849380612 334.303111806774L955.3498849380612 334.303111806774Q946.9974346017195 334.303111806774 942.3676119433728 335.7108281555956Q937.7690718705554 337.14982708994665 935.3290301992646 341.34169355088216Q932.9202711135031 345.50227742628834 930.7304901264472 353.88601034815946L930.7304901264472 353.88601034815946Q930.2612513435067 354.9809008416874 928.5094265538619 354.9809008416874L928.5094265538619 354.9809008416874Q924.7867988758669 354.9809008416874 923.2226695993984 353.4167715652189L923.2226695993984 353.4167715652189L927.4145360603341 321.97777310820226Q932.2633368173863 323.0726636017302 935.9859644953813 323.729597897847Q939.7398747589057 324.3865321939638 942.5865900420783 324.3865321939638L942.5865900420783 324.3865321939638Q958.4155783199394 324.3865321939638 970.5219389198055 324.8244883913749Q982.6282995196717 325.2624445887861 990.7617717573078 325.2624445887861L990.7617717573078 325.2624445887861Q1007.6856505286969 325.2624445887861 1019.9171414706805 324.8244883913749Q1032.117349827135 324.3865321939638 1039.155931571243 324.3865321939638L1039.155931571243 324.3865321939638Q1042.0026468544156 324.3865321939638 1045.7565571179398 323.729597897847Q1049.479184795935 323.0726636017302 1054.3279855529872 321.97777310820226L1054.3279855529872 321.97777310820226L1058.519852013923 353.4167715652189Q1056.9557227374544 354.9809008416874 1053.2330950594596 354.9809008416874L1053.2330950594596 354.9809008416874Q1051.4812702698146 354.9809008416874 1051.0433140724035 353.88601034815946L1051.0433140724035 353.88601034815946Q1049.041228598524 345.50227742628834 1046.507339170645 341.34169355088216Q1044.0047323282952 337.14982708994665 1039.3749096699485 335.7108281555956Q1034.7450870116018 334.303111806774 1026.3926366752603 334.303111806774L1026.3926366752603 334.303111806774Q1003.3060885545851 334.303111806774 1002.2111980610571 337.5877832873578L1002.2111980610571 337.5877832873578Q1000.2091125871775 344.4073869327604 1000.2091125871775 359.57944091450474L1000.2091125871775 359.57944091450474L1000.2091125871775 439.00592557357464Q1000.2091125871775 451.73793788402816 1002.2111980610571 459.46473650978254L1002.2111980610571 459.46473650978254Q1002.6491542584683 460.34064890460485 1005.495869541641 461.4355393981328Q1008.373867410343 462.53042989166073 1011.6585388909268 463.1873641877775Q1014.9744929570401 463.84429848389425 1016.2883615492735 463.84429848389425L1016.2883615492735 463.84429848389425Q1017.1642739440958 463.84429848389425 1017.1642739440958 467.16025255000744L1017.1642739440958 467.16025255000744Q1017.1642739440958 468.474121142241 1016.7263177466848 470.2259459318857L1016.7263177466848 470.2259459318857Q1005.7148476403465 469.7879897344745 999.3332001923551 469.4438812936515Q992.9515527443637 469.13105543835775 991.199727954719 469.13105543835775L991.199727954719 469.13105543835775ZM1080.949465838481 469.13105543835775L1056.9557227374544 470.2259459318857Q1056.0798103426318 469.3500335370633 1056.0798103426318 466.5033182538907L1056.0798103426318 466.5033182538907Q1056.0798103426318 463.84429848389425 1056.9557227374544 463.84429848389425L1056.9557227374544 463.84429848389425Q1058.7388301126284 463.84429848389425 1061.8045234945066 463.1873641877775Q1064.9014994619142 462.53042989166073 1067.5292366463814 461.4355393981328Q1070.1569738308485 460.34064890460485 1070.375951929554 459.46473650978254L1070.375951929554 459.46473650978254Q1071.2831469099056 456.36776054237487 1071.5959727651993 452.42615476567426Q1071.9400812060226 448.45326640344433 1071.9400812060226 444.0424218438032L1071.9400812060226 444.0424218438032L1071.9400812060226 402.46786567527073Q1071.9400812060226 394.115415338929 1068.843105238615 390.6117657596396L1068.843105238615 390.6117657596396Q1066.6533242515588 387.9527459896431 1063.681478626269 387.0768335948208Q1060.7096330009786 386.20092119999845 1058.3947216718052 386.10707344341034Q1056.0798103426318 385.98194310129287 1056.0798103426318 385.54398690388166L1056.0798103426318 385.54398690388166Q1056.0798103426318 380.25722994941816 1057.4249615203948 380.0382518507126L1057.4249615203948 380.0382518507126Q1081.387422035892 376.3156241727176 1085.1100497138873 375.22073367918966L1085.1100497138873 375.22073367918966L1088.8639599774115 374.09456060013235Q1089.739872372234 373.8755825014268 1089.9588504709395 375.8776679753064Q1090.177828569645 377.8484708636567 1089.9588504709395 378.72438325847907L1089.9588504709395 378.72438325847907L1088.644981878706 389.7358533648172Q1092.617870240936 383.792162114237 1099.5313216429267 378.63053550189096Q1106.4760556304468 373.43762630401557 1113.2643766903202 373.43762630401557L1113.2643766903202 373.43762630401557Q1126.0276715863029 373.43762630401557 1130.438516145944 379.819273752007L1130.438516145944 379.819273752007Q1130.438516145944 387.51478979223197 1128.0297570601824 391.04972195705074Q1125.5897153888918 394.5533715363402 1122.0860658096021 394.5533715363402L1122.0860658096021 394.5533715363402Q1118.1131774473724 394.5533715363402 1114.8285059667887 390.83074385834516L1114.8285059667887 390.83074385834516Q1111.5125519006751 387.0768335948208 1105.7878387488008 387.0768335948208L1105.7878387488008 387.0768335948208Q1101.408276774689 387.0768335948208 1097.435388412459 390.0486792201109Q1093.4937826357582 393.02052484540104 1091.1788713065848 397.52521716163034Q1088.8639599774115 402.0299094778596 1088.8639599774115 406.87871023491186L1088.8639599774115 406.87871023491186L1088.8639599774115 439.881837968397Q1088.8639599774115 446.26348541638845 1089.3019161748225 451.0810035879114Q1089.739872372234 455.92980434496366 1090.6157847670565 459.46473650978254L1090.6157847670565 459.46473650978254Q1091.0537409644676 460.34064890460485 1093.7127607344637 461.4355393981328Q1096.3404979189309 462.53042989166073 1099.5313216429267 463.1873641877775Q1102.7221453669226 463.84429848389425 1104.0360139591558 463.84429848389425L1104.0360139591558 463.84429848389425Q1104.6929482552728 463.84429848389425 1104.9119263539783 466.5033182538907Q1105.1309044526838 469.13105543835775 1104.6929482552728 470.2259459318857L1104.6929482552728 470.2259459318857L1080.949465838481 469.13105543835775ZM1164.3175562742517 469.13105543835775L1140.323813173225 470.2259459318857Q1139.4479007784025 469.3500335370633 1139.4479007784025 466.5033182538907L1139.4479007784025 466.5033182538907Q1139.4479007784025 463.84429848389425 1140.323813173225 463.84429848389425L1140.323813173225 463.84429848389425Q1142.106920548399 463.84429848389425 1145.1726139302773 463.1873641877775Q1148.2383073121555 462.53042989166073 1150.897327082152 461.4355393981328Q1153.5250642666188 460.34064890460485 1153.7440423653247 459.46473650978254L1153.7440423653247 459.46473650978254Q1154.6199547601468 456.36776054237487 1154.96406320097 452.42615476567426Q1155.2768890562638 448.45326640344433 1155.2768890562638 444.0424218438032L1155.2768890562638 444.0424218438032L1155.2768890562638 402.46786567527073Q1155.2768890562638 394.115415338929 1152.2111956743856 390.6117657596396L1152.2111956743856 390.6117657596396Q1150.0214146873295 387.73376789093754 1146.924438719922 386.9829858382327Q1143.8587453380437 386.20092119999845 1141.6689643509876 386.10707344341034Q1139.4479007784025 385.98194310129287 1139.4479007784025 385.54398690388166L1139.4479007784025 385.54398690388166Q1139.4479007784025 380.25722994941816 1140.761769370636 380.0382518507126L1140.761769370636 380.0382518507126Q1152.4301737730912 378.2864270610679 1158.592843122377 377.06640622542244Q1164.7555124716628 375.8776679753064 1169.5730306431856 374.78277748177845L1169.5730306431856 374.78277748177845L1172.2320504131822 374.09456060013235Q1173.1079628080042 373.8755825014268 1173.3269409067098 375.8776679753064Q1173.5459190054157 377.8484708636567 1173.3269409067098 378.72438325847907L1173.3269409067098 378.72438325847907Q1172.8889847092987 383.1352278181202 1172.5448762684755 387.0768335948208Q1172.2320504131822 391.04972195705074 1172.2320504131822 394.5533715363402L1172.2320504131822 394.5533715363402L1172.2320504131822 439.881837968397Q1172.2320504131822 446.26348541638845 1172.6700066105932 451.0810035879114Q1173.1079628080042 455.92980434496366 1173.9838752028268 459.46473650978254L1173.9838752028268 459.46473650978254Q1174.4218314002378 460.34064890460485 1177.0808511702344 461.4355393981328Q1179.7085883547015 462.53042989166073 1182.7742817365797 463.1873641877775Q1185.8712577039873 463.84429848389425 1187.185126296221 463.84429848389425L1187.185126296221 463.84429848389425Q1187.8420605923375 463.84429848389425 1188.061038691043 466.5033182538907Q1188.2800167897485 469.13105543835775 1187.8420605923375 470.2259459318857L1187.8420605923375 470.2259459318857L1164.3175562742517 469.13105543835775ZM1162.0964927016662 350.13210008463506L1162.0964927016662 350.13210008463506Q1157.7169307275544 350.13210008463506 1154.4009766614413 346.84742860405123Q1151.1163051808576 343.5314745379381 1151.1163051808576 339.1206299782969L1151.1163051808576 339.1206299782969Q1151.1163051808576 334.52208990547956 1154.4009766614413 331.33126618148384Q1157.7169307275544 328.1404424574881 1162.0964927016662 328.1404424574881L1162.0964927016662 328.1404424574881Q1166.726315360013 328.1404424574881 1169.9171390840088 331.33126618148384Q1173.1079628080042 334.52208990547956 1173.1079628080042 339.1206299782969L1173.1079628080042 339.1206299782969Q1173.1079628080042 343.5314745379381 1169.9171390840088 346.84742860405123Q1166.726315360013 350.13210008463506 1162.0964927016662 350.13210008463506ZM1246.340495532259 471.10185832670805L1246.340495532259 471.10185832670805Q1244.5886707426143 466.9412744513018 1240.5219346237964 457.4626510359028Q1236.4551985049784 448.0153102060331 1230.0735510569866 433.2812124217L1230.0735510569866 433.2812124217Q1223.6919036089953 418.3281365386612 1218.1861685558265 406.3469062809126Q1212.7117160881867 394.33439343763456 1207.862915331134 384.88705260776493L1207.862915331134 384.88705260776493Q1205.4541562453728 380.4762080481238 1194.8806423364458 380.4762080481238L1194.8806423364458 380.4762080481238Q1194.0047299416233 380.4762080481238 1194.0047299416233 377.6294927649511L1194.0047299416233 377.6294927649511Q1194.0047299416233 375.00175558048403 1194.8806423364458 374.09456060013235L1194.8806423364458 374.09456060013235Q1200.6053554883206 374.31353869883793 1206.3300686401953 374.78277748177845Q1212.0547817920697 375.22073367918966 1217.748212358415 375.22073367918966L1217.748212358415 375.22073367918966Q1223.2539474115842 375.22073367918966 1228.759682464753 374.78277748177845Q1234.2654175179223 374.31353869883793 1239.739869985562 374.09456060013235L1239.739869985562 374.09456060013235Q1240.2091087685026 375.00175558048403 1239.8650003276794 377.7233405215392Q1239.5208918868566 380.4762080481238 1238.8639575907396 380.4762080481238L1238.8639575907396 380.4762080481238Q1228.1027481686365 380.4762080481238 1228.1027481686365 384.23011831164814L1228.1027481686365 384.23011831164814Q1228.1027481686365 384.4490964103537 1228.321726267342 384.98090036435303Q1228.5407043660475 385.54398690388166 1228.759682464753 385.98194310129287L1228.759682464753 385.98194310129287L1254.7242284541303 444.6993561399199L1276.934864179983 394.115415338929Q1278.0297546735105 391.9256343518731 1278.3425805288043 390.26765731881653Q1278.6866889696275 388.6096802857599 1278.6866889696275 387.51478979223197L1278.6866889696275 387.51478979223197Q1278.6866889696275 380.4762080481238 1262.8577006917662 380.4762080481238L1262.8577006917662 380.4762080481238Q1261.9817882969442 380.4762080481238 1261.9817882969442 377.6294927649511L1261.9817882969442 377.6294927649511Q1261.9817882969442 375.00175558048403 1262.8577006917662 374.09456060013235L1262.8577006917662 374.09456060013235Q1265.2664597775279 374.31353869883793 1271.8670853242247 374.87662523836656Q1278.467710870922 375.43971177789524 1283.7544678253853 375.22073367918966L1283.7544678253853 375.22073367918966L1305.7461254525324 374.09456060013235Q1306.1840816499434 375.8776679753064 1306.1840816499434 377.41051466624555L1306.1840816499434 377.41051466624555Q1306.1840816499434 380.4762080481238 1304.6512349590043 380.4762080481238L1304.6512349590043 380.4762080481238Q1301.5542589915967 380.4762080481238 1296.5177627213684 382.25931542329783Q1291.4499838656102 384.01114021294256 1289.6981590759656 387.9527459896431L1289.6981590759656 387.9527459896431L1254.7242284541303 466.9412744513018Q1253.1600991776618 470.44492403059127 1250.0944057957836 471.4459667675311Q1246.997429828376 472.4157269189415 1246.340495532259 471.10185832670805ZM1334.7763648237874 469.13105543835775L1310.8139043082901 470.2259459318857Q1309.9067093279386 469.3500335370633 1309.9067093279386 466.5033182538907L1309.9067093279386 466.5033182538907Q1309.9067093279386 463.84429848389425 1310.8139043082901 463.84429848389425L1310.8139043082901 463.84429848389425Q1312.5657290979348 463.84429848389425 1315.6314224798134 463.1873641877775Q1318.7283984472206 462.53042989166073 1321.3561356316877 461.4355393981328Q1323.9838728161549 460.34064890460485 1324.2028509148604 459.46473650978254L1324.2028509148604 459.46473650978254Q1325.1100458952124 456.36776054237487 1325.4228717505057 452.42615476567426Q1325.766980191329 448.45326640344433 1325.766980191329 444.0424218438032L1325.766980191329 444.0424218438032L1325.766980191329 402.46786567527073Q1325.766980191329 394.115415338929 1322.6700042239213 390.6117657596396L1322.6700042239213 390.6117657596396Q1320.4802232368656 387.73376789093754 1317.383247269458 386.9829858382327Q1314.3175538875794 386.20092119999845 1312.1277729005237 386.10707344341034Q1309.9067093279386 385.98194310129287 1309.9067093279386 385.54398690388166L1309.9067093279386 385.54398690388166Q1309.9067093279386 380.25722994941816 1311.2518605057012 380.0382518507126L1311.2518605057012 380.0382518507126Q1322.8889823226268 378.2864270610679 1329.0516516719126 377.06640622542244Q1335.2143210211989 375.8776679753064 1340.0631217782511 374.78277748177845L1340.0631217782511 374.78277748177845L1342.6908589627178 374.09456060013235Q1343.5667713575403 373.8755825014268 1343.7857494562459 375.8776679753064Q1344.0047275549518 377.8484708636567 1343.7857494562459 378.72438325847907L1343.7857494562459 378.72438325847907Q1343.3477932588348 383.1352278181202 1343.034967403541 387.0768335948208Q1342.6908589627178 391.04972195705074 1342.6908589627178 394.5533715363402L1342.6908589627178 394.5533715363402L1342.6908589627178 439.881837968397Q1342.6908589627178 446.26348541638845 1343.1288151601293 451.0810035879114Q1343.5667713575403 455.92980434496366 1344.4426837523624 459.46473650978254L1344.4426837523624 459.46473650978254Q1344.880639949774 460.34064890460485 1347.5396597197705 461.4355393981328Q1350.1673969042372 462.53042989166073 1353.2643728716448 463.1873641877775Q1356.330066253523 463.84429848389425 1357.6439348457566 463.84429848389425L1357.6439348457566 463.84429848389425Q1358.3008691418736 463.84429848389425 1358.519847240579 466.5033182538907Q1358.7388253392846 469.13105543835775 1358.3008691418736 470.2259459318857L1358.3008691418736 470.2259459318857L1334.7763648237874 469.13105543835775ZM1332.5865838367317 350.13210008463506L1332.5865838367317 350.13210008463506Q1328.1757392770905 350.13210008463506 1324.8910677965068 346.84742860405123Q1321.5751137303932 343.5314745379381 1321.5751137303932 339.1206299782969L1321.5751137303932 339.1206299782969Q1321.5751137303932 334.52208990547956 1324.8910677965068 331.33126618148384Q1328.1757392770905 328.1404424574881 1332.5865838367317 328.1404424574881L1332.5865838367317 328.1404424574881Q1337.185123909549 328.1404424574881 1340.3759476335445 331.33126618148384Q1343.5667713575403 334.52208990547956 1343.5667713575403 339.1206299782969L1343.5667713575403 339.1206299782969Q1343.5667713575403 343.5314745379381 1340.3759476335445 346.84742860405123Q1337.185123909549 350.13210008463506 1332.5865838367317 350.13210008463506ZM1396.8097319285275 471.10185832670805L1396.8097319285275 471.10185832670805Q1386.674174217012 471.10185832670805 1380.0735486703147 465.72125361565645Q1373.4729231236179 460.34064890460485 1373.4729231236179 449.5481568969723L1373.4729231236179 449.5481568969723Q1373.4729231236179 436.3469058035782 1390.6470625792417 427.5564992698253L1390.6470625792417 427.5564992698253Q1398.1236005207616 423.80258900630093 1405.4750081201632 421.61280801924505Q1412.8576983050943 419.42302703218917 1420.3342362466137 416.54502916348713L1420.3342362466137 416.54502916348713Q1422.3050391349643 415.8880948673704 1422.3050391349643 413.2603576829033L1422.3050391349643 413.2603576829033L1422.3050391349643 396.77443510892545Q1422.3050391349643 389.7358533648172 1417.9254771608526 385.88809534470477Q1413.5146326012114 382.04033732459226 1407.3519632519256 382.04033732459226L1407.3519632519256 382.04033732459226Q1400.7513377052283 382.04033732459226 1396.3717757311165 386.5450296408215Q1391.9609311714753 391.04972195705074 1391.9609311714753 398.30728179986454L1391.9609311714753 398.30728179986454Q1391.9609311714753 406.0027978400895 1382.9515465390168 406.0027978400895L1382.9515465390168 406.0027978400895Q1376.5698990910255 406.0027978400895 1374.3801181039698 401.81093137915394L1374.3801181039698 401.81093137915394Q1374.3801181039698 397.2123913063366 1378.2278761240823 392.26974279269615Q1382.0756341441947 387.2958116935264 1388.2383034934805 383.1352278181202Q1394.369690257237 378.94336135718464 1401.752380442168 376.3156241727176Q1409.1350706270996 373.65660440272114 1416.392630469913 373.65660440272114L1416.392630469913 373.65660440272114Q1428.4677084842501 373.65660440272114 1433.7544654387134 379.5064478967133Q1439.0412223931771 385.3250088051761 1439.0412223931771 398.30728179986454L1439.0412223931771 398.30728179986454L1439.0412223931771 449.11020069956106Q1439.0412223931771 453.7400233579078 1441.4499814789383 456.8057167397861Q1443.8587405647 459.90269270719364 1448.0506070256356 459.90269270719364L1448.0506070256356 459.90269270719364Q1450.8973223088083 459.90269270719364 1455.7461230658605 456.8057167397861L1455.7461230658605 456.8057167397861Q1456.622035460683 456.8057167397861 1456.622035460683 458.55754152943075L1456.622035460683 458.55754152943075Q1456.622035460683 461.4355393981328 1455.527144967155 463.1873641877775L1455.527144967155 463.1873641877775Q1446.5177603346965 470.8828802280024 1440.1361128867052 470.8828802280024L1440.1361128867052 470.8828802280024Q1435.068334030947 470.8828802280024 1430.4697939581297 466.7222963525963Q1425.839971299783 462.53042989166073 1424.0881465101384 457.900607233314L1424.0881465101384 457.900607233314Q1422.9619734310809 458.7765196281363 1421.3352789835535 460.2155185624874Q1419.6773019504972 461.65451749683837 1418.582411456969 462.53042989166073L1418.582411456969 462.53042989166073Q1413.9525887986224 466.03407947095013 1408.5719840875709 468.56796889882906Q1403.1913793765193 471.10185832670805 1396.8097319285275 471.10185832670805ZM1405.1621822648694 458.55754152943075L1405.1621822648694 458.55754152943075Q1411.3248516141552 458.55754152943075 1416.8305866673245 455.05389195014135Q1422.3050391349643 451.5189597853226 1422.3050391349643 447.57735400862197L1422.3050391349643 447.57735400862197L1422.3050391349643 424.92876208535824Q1416.611608568619 427.1185430724141 1411.4186993707435 428.8703678620588Q1406.2570727583975 430.62219265170353 1403.1913793765193 431.74836573076084L1403.1913793765193 431.74836573076084Q1399.2184910142892 433.2812124217 1395.5897110928822 437.22281819840055Q1391.9609311714753 441.1957065606305 1391.9609311714753 446.26348541638845L1391.9609311714753 446.26348541638845Q1391.9609311714753 452.86411096308547 1396.0276672902933 455.71082624625814Q1400.0944034091117 458.55754152943075 1405.1621822648694 458.55754152943075Z " fill="#ffffff" transform="matrix(0.6007049263080606,0,0,0.6007049263080606,0,61.5335138036327)"/></g></svg>